<svg xmlns="http://www.w3.org/2000/svg" xmlns:xlink="http://www.w3.org/1999/xlink" width="30pt" height="30.000001pt" viewBox="0 0 30 30.000001" version="1.2">
<defs>
<clipPath id="clip1">
  <path d="M 0.484375 0 L 29.40625 0 L 29.40625 29 L 0.484375 29 Z M 0.484375 0 "/>
</clipPath>
</defs>
<g id="surface1">
<g clip-path="url(#clip1)" clip-rule="nonzero">
<path style=" stroke:none;fill-rule:nonzero;fill:rgb(16.859436%,16.859436%,16.859436%);fill-opacity:1;" d="M 23.894531 0.0703125 L 22.289062 0.0625 L 23.066406 4.316406 Z M 27.449219 1.609375 L 24.527344 4.777344 L 28.398438 2.90625 Z M 25.085938 6.84375 L 29.128906 8.3125 L 29.378906 6.714844 Z M 11.636719 10.476562 L 17.972656 4.066406 C 18.03125 3.992188 18.089844 3.929688 18.148438 3.871094 C 18.566406 3.449219 19.101562 3.179688 19.644531 3.105469 C 19.753906 2.996094 19.816406 2.933594 19.820312 2.933594 C 20.53125 2.214844 20.636719 1.164062 20.0625 0.582031 C 19.484375 0 18.441406 0.109375 17.730469 0.824219 C 17.675781 0.882812 17.625 0.941406 17.574219 1 L 11.617188 7.027344 C 11.6875 7.480469 11.730469 7.976562 11.742188 8.527344 C 11.753906 9.238281 11.71875 9.890625 11.636719 10.476562 Z M 2.296875 20.1875 C 1.691406 17.835938 2.371094 15.230469 4.171875 13.023438 C 4.40625 12.734375 4.648438 12.453125 4.886719 12.175781 C 5.789062 11.132812 6.640625 10.148438 6.992188 8.925781 C 7.121094 8.480469 7.179688 8.011719 7.238281 7.511719 C 7.273438 7.222656 7.3125 6.921875 7.363281 6.625 C 7.503906 5.8125 7.976562 3.925781 9.28125 3.925781 C 9.582031 3.925781 9.882812 4.035156 10.175781 4.246094 C 10.21875 4.277344 10.261719 4.308594 10.300781 4.34375 C 10.210938 3.207031 9.917969 1.90625 9.015625 1.261719 C 7.816406 0.40625 7.257812 2.386719 7.105469 3.265625 C 6.96875 4.054688 6.941406 4.863281 6.722656 5.628906 C 6.230469 7.332031 4.882812 8.59375 3.792969 9.933594 C 2.234375 11.84375 1.410156 14.316406 2.046875 16.667969 C 2.066406 16.738281 2.09375 16.816406 2.121094 16.894531 L 0.949219 18.074219 C 0.390625 18.636719 0.390625 19.550781 0.949219 20.113281 L 1.660156 20.828125 Z M 25.222656 15.621094 L 25.226562 15.625 L 19.15625 21.742188 C 19.140625 21.761719 19.128906 21.777344 19.113281 21.796875 L 16.722656 24.203125 C 15.035156 25.902344 12.785156 26.652344 10.683594 26.425781 L 8.652344 28.472656 C 8.097656 29.03125 7.199219 29.03125 6.644531 28.472656 L 1.652344 23.445312 C 1.09375 22.886719 1.09375 21.976562 1.652344 21.417969 L 2.828125 20.230469 C 2.800781 20.152344 2.777344 20.078125 2.757812 20.007812 C 2.15625 17.691406 3.003906 15.242188 4.5625 13.335938 C 5.660156 11.996094 7.003906 10.734375 7.507812 9.050781 C 7.738281 8.289062 7.773438 7.488281 7.917969 6.710938 C 8.082031 5.839844 8.65625 3.875 9.828125 4.707031 C 10.910156 5.472656 11.078125 7.226562 11.085938 8.460938 C 11.097656 9.714844 10.964844 11.613281 9.96875 12.753906 L 18.289062 4.339844 C 18.335938 4.28125 18.386719 4.222656 18.441406 4.167969 C 19.152344 3.453125 20.183594 3.332031 20.746094 3.898438 C 21.308594 4.464844 21.191406 5.503906 20.480469 6.222656 C 20.445312 6.253906 20.410156 6.285156 20.375 6.316406 C 20.378906 6.316406 14.042969 12.726562 14.042969 12.726562 C 13.949219 12.824219 13.945312 12.976562 14.03125 13.066406 C 14.121094 13.152344 14.269531 13.148438 14.367188 13.050781 L 21.699219 5.636719 C 21.75 5.570312 21.804688 5.507812 21.863281 5.449219 C 22.574219 4.730469 23.605469 4.609375 24.167969 5.179688 C 24.734375 5.746094 24.613281 6.785156 23.902344 7.5 C 23.855469 7.550781 23.804688 7.59375 23.753906 7.636719 L 23.757812 7.640625 L 16.394531 15.09375 C 16.296875 15.191406 16.292969 15.339844 16.378906 15.429688 C 16.46875 15.519531 16.621094 15.515625 16.714844 15.417969 L 22.785156 9.269531 C 22.839844 9.203125 22.898438 9.132812 22.964844 9.070312 C 23.675781 8.351562 24.707031 8.230469 25.269531 8.800781 C 25.820312 9.355469 25.714844 10.359375 25.046875 11.074219 C 25.046875 11.078125 25.003906 11.121094 25.003906 11.121094 C 25 11.125 18.742188 17.460938 18.742188 17.460938 C 18.644531 17.554688 18.640625 17.707031 18.730469 17.796875 C 18.816406 17.886719 18.96875 17.878906 19.0625 17.785156 L 22.921875 13.867188 C 22.976562 13.792969 23.039062 13.71875 23.109375 13.652344 C 23.820312 12.933594 24.851562 12.8125 25.414062 13.378906 C 25.957031 13.925781 25.863281 14.910156 25.222656 15.621094 "/>
</g>
</g>
</svg>
