<svg xmlns="http://www.w3.org/2000/svg" xmlns:xlink="http://www.w3.org/1999/xlink" width="40" height="40" version="1.2" viewBox="0 0 30 30"><defs><clipPath id="clip1"><path d="M 0.484375 0.109375 L 29.515625 0.109375 L 29.515625 29 L 0.484375 29 Z M 0.484375 0.109375"/></clipPath></defs><g id="surface1"><g clip-path="url(#clip1)" clip-rule="nonzero"><path style="stroke:none;fill-rule:nonzero;fill:#fff;fill-opacity:1" d="M 24 0.179688 L 22.394531 0.167969 L 23.171875 4.425781 Z M 27.550781 1.714844 L 24.632812 4.886719 L 28.503906 3.015625 Z M 25.191406 6.953125 L 29.230469 8.421875 L 29.484375 6.824219 Z M 11.746094 10.585938 L 18.082031 4.175781 C 18.140625 4.101562 18.199219 4.039062 18.257812 3.980469 C 18.675781 3.558594 19.207031 3.289062 19.75 3.214844 C 19.863281 3.105469 19.925781 3.042969 19.925781 3.039062 C 20.636719 2.324219 20.746094 1.273438 20.167969 0.691406 C 19.59375 0.109375 18.546875 0.21875 17.839844 0.933594 C 17.78125 0.992188 17.730469 1.050781 17.683594 1.109375 L 11.726562 7.136719 C 11.800781 7.589844 11.839844 8.085938 11.851562 8.636719 C 11.867188 9.347656 11.832031 10 11.746094 10.585938 Z M 2.410156 20.296875 C 1.808594 17.945312 2.488281 15.339844 4.285156 13.128906 C 4.519531 12.84375 4.765625 12.5625 5 12.285156 C 5.902344 11.242188 6.753906 10.257812 7.105469 9.035156 C 7.234375 8.589844 7.292969 8.121094 7.351562 7.621094 C 7.386719 7.332031 7.425781 7.03125 7.476562 6.734375 C 7.617188 5.921875 8.085938 4.035156 9.394531 4.035156 C 9.695312 4.035156 9.996094 4.144531 10.289062 4.355469 C 10.332031 4.382812 10.371094 4.417969 10.414062 4.449219 C 10.320312 3.316406 10.027344 2.015625 9.128906 1.371094 C 7.929688 0.515625 7.371094 2.496094 7.21875 3.375 C 7.082031 4.164062 7.054688 4.972656 6.835938 5.738281 C 6.34375 7.441406 4.996094 8.699219 3.90625 10.042969 C 2.351562 11.953125 1.523438 14.425781 2.160156 16.773438 C 2.179688 16.847656 2.207031 16.925781 2.238281 17.003906 L 1.066406 18.183594 C 0.507812 18.746094 0.507812 19.660156 1.066406 20.222656 L 1.773438 20.9375 Z M 25.328125 15.730469 L 25.332031 15.734375 L 19.265625 21.851562 C 19.25 21.871094 19.238281 21.886719 19.21875 21.90625 L 16.832031 24.308594 C 15.144531 26.011719 12.898438 26.761719 10.796875 26.535156 L 8.765625 28.582031 C 8.210938 29.140625 7.3125 29.140625 6.757812 28.582031 L 1.765625 23.550781 C 1.210938 22.992188 1.210938 22.085938 1.765625 21.527344 L 2.945312 20.339844 C 2.917969 20.261719 2.890625 20.1875 2.875 20.117188 C 2.273438 17.800781 3.117188 15.351562 4.679688 13.445312 C 5.773438 12.105469 7.117188 10.84375 7.621094 9.160156 C 7.851562 8.398438 7.886719 7.597656 8.03125 6.820312 C 8.195312 5.945312 8.769531 3.984375 9.941406 4.816406 C 11.023438 5.582031 11.1875 7.335938 11.199219 8.570312 C 11.207031 9.824219 11.074219 11.722656 10.082031 12.863281 L 18.394531 4.449219 C 18.441406 4.390625 18.496094 4.332031 18.550781 4.277344 C 19.261719 3.5625 20.292969 3.441406 20.855469 4.007812 C 21.417969 4.574219 21.296875 5.613281 20.585938 6.328125 C 20.554688 6.363281 20.519531 6.394531 20.484375 6.425781 C 20.484375 6.425781 14.15625 12.835938 14.15625 12.835938 C 14.058594 12.933594 14.054688 13.082031 14.140625 13.175781 C 14.230469 13.261719 14.382812 13.257812 14.476562 13.160156 L 21.804688 5.746094 C 21.855469 5.679688 21.910156 5.617188 21.972656 5.554688 C 22.679688 4.839844 23.714844 4.71875 24.273438 5.289062 C 24.839844 5.855469 24.71875 6.894531 24.007812 7.609375 C 23.960938 7.65625 23.910156 7.703125 23.859375 7.746094 L 23.863281 7.75 L 16.503906 15.203125 C 16.40625 15.296875 16.398438 15.449219 16.488281 15.539062 C 16.578125 15.628906 16.726562 15.625 16.824219 15.527344 L 22.890625 9.378906 C 22.949219 9.3125 23.003906 9.242188 23.070312 9.175781 C 23.78125 8.460938 24.8125 8.339844 25.375 8.910156 C 25.925781 9.464844 25.820312 10.46875 25.152344 11.183594 C 25.152344 11.183594 25.109375 11.230469 25.109375 11.230469 C 25.105469 11.230469 18.851562 17.566406 18.851562 17.566406 C 18.753906 17.664062 18.746094 17.816406 18.835938 17.90625 C 18.925781 17.996094 19.074219 17.988281 19.171875 17.890625 L 23.027344 13.976562 C 23.085938 13.902344 23.144531 13.828125 23.214844 13.757812 C 23.925781 13.042969 24.957031 12.921875 25.519531 13.488281 C 26.0625 14.035156 25.96875 15.019531 25.328125 15.730469"/></g></g></svg>