<svg xmlns="http://www.w3.org/2000/svg" id="Сгруппировать_4775" width="25.399" height="15.876" data-name="Сгруппировать 4775" viewBox="0 0 25.399 15.876"><g id="Сгруппировать_4774" data-name="Сгруппировать 4774" transform="translate(0 0)"><path id="Контур_727" fill="#747b88" d="M10.449,103.155a3.81,3.81,0,0,0,1.2-.88,3.417,3.417,0,0,0,.726-2.281,3.9,3.9,0,0,0-.719-2.364,4.845,4.845,0,0,0-4.069-1.651H0v15.484H7.073a11.06,11.06,0,0,0,2.218-.208,4.362,4.362,0,0,0,1.773-.778,4.293,4.293,0,0,0,1.111-1.218,4.474,4.474,0,0,0,.7-2.469,4.062,4.062,0,0,0-.611-2.269A3.528,3.528,0,0,0,10.449,103.155Zm-7.32-4.486H6.546A6.023,6.023,0,0,1,8.4,98.91a1.389,1.389,0,0,1,.843,1.432,1.458,1.458,0,0,1-.638,1.359,3.2,3.2,0,0,1-1.661.384H3.129Zm5.4,9.835a3.742,3.742,0,0,1-1.591.273H3.129v-4.129H6.993a4.033,4.033,0,0,1,1.572.26,1.66,1.66,0,0,1,1,1.662A1.946,1.946,0,0,1,8.532,108.5Z" data-name="Контур 727" transform="translate(0 -95.979)"/><rect id="Прямоугольник_3518" width="6.727" height="1.927" fill="#747b88" data-name="Прямоугольник 3518" transform="translate(16.231 0.722)"/><path id="Контур_728" fill="#747b88" d="M291.282,175.776a5.525,5.525,0,0,0-.927-2.367,4.674,4.674,0,0,0-2-1.694,6.632,6.632,0,0,0-2.731-.537,5.651,5.651,0,0,0-4.15,1.588,6.159,6.159,0,0,0-1.6,4.566q0,3.174,1.773,4.583a6.371,6.371,0,0,0,4.088,1.408,5.689,5.689,0,0,0,4.367-1.669,3.757,3.757,0,0,0,1.124-2.07h-3.1a2.5,2.5,0,0,1-.625.787,2.594,2.594,0,0,1-1.683.524,3.111,3.111,0,0,1-1.675-.432,2.735,2.735,0,0,1-1.216-2.415h8.457A14.573,14.573,0,0,0,291.282,175.776Zm-8.279.3a3.1,3.1,0,0,1,.81-1.772,2.44,2.44,0,0,1,1.811-.656,2.7,2.7,0,0,1,1.8.616,2.5,2.5,0,0,1,.808,1.811Z" data-name="Контур 728" transform="translate(-265.987 -167.448)"/></g></svg>