<svg id="bookmark" xmlns="http://www.w3.org/2000/svg" width="14.732" height="19.931" viewBox="0 0 14.732 19.931">
  <g id="Сгруппировать_227" data-name="Сгруппировать 227">
    <path id="Контур_5" data-name="Контур 5" d="M68.1,0H57.222A1.931,1.931,0,0,0,55.3,1.926v16.8a1.2,1.2,0,0,0,.674,1.083,1.221,1.221,0,0,0,1.276-.144l.024-.024,5.392-4.55,5.392,4.55.024.024a1.228,1.228,0,0,0,.746.265,1.1,1.1,0,0,0,.53-.144,1.2,1.2,0,0,0,.674-1.083V1.926A1.931,1.931,0,0,0,68.1,0Z" transform="translate(-55.296)" fill="#747b88"/>
  </g>
</svg>
