<svg xmlns="http://www.w3.org/2000/svg" width="18.418" height="20.964" viewBox="0 0 18.418 20.964">
  <g id="tik-tok" transform="translate(-31.423 -0.39)">
    <path id="Контур_734" data-name="Контур 734" d="M49.831,5.639a5.282,5.282,0,0,1-3.192-1.067A5.283,5.283,0,0,1,44.529.39H41.107V9.743l0,5.123a3.1,3.1,0,1,1-2.128-2.94V8.451a6.736,6.736,0,0,0-.987-.073,6.564,6.564,0,0,0-4.932,2.206,6.432,6.432,0,0,0,.29,8.87,6.677,6.677,0,0,0,.618.54,6.564,6.564,0,0,0,4.023,1.36,6.736,6.736,0,0,0,.987-.073,6.542,6.542,0,0,0,3.655-1.828,6.408,6.408,0,0,0,1.922-4.56l-.018-7.65a8.673,8.673,0,0,0,5.307,1.8V5.638h-.01Z" transform="translate(0 0)" fill="#747b88"/>
  </g>
</svg>
