<svg xmlns="http://www.w3.org/2000/svg" width="14.216" height="22.749" viewBox="0 0 14.216 22.749"><g id="odnoklassniki" transform="translate(-4.5)"><path id="Контур_735" fill="#747b88" d="M4.709,12.839c-.581,1.142.079,1.688,1.584,2.621a10.436,10.436,0,0,0,4.183,1.2L6,20.96c-1.3,1.248.794,3.251,2.1,2.029l3.523-3.4c1.349,1.3,2.642,2.541,3.523,3.4,1.3,1.227,3.4-.759,2.11-2.029-.1-.092-4.774-4.579-4.489-4.3a10.465,10.465,0,0,0,4.155-1.2h0c1.505-.937,2.165-1.482,1.592-2.625-.346-.648-1.279-1.191-2.52-.253a7.677,7.677,0,0,1-4.381,1.284,7.673,7.673,0,0,1-4.381-1.284c-1.241-.942-2.177-.4-2.519.253Z" data-name="Контур 735" transform="translate(0 -0.63)"/><path id="Контур_736" fill="#747b88" d="M11.669,11.509a5.881,5.881,0,0,0,5.989-5.748A5.883,5.883,0,0,0,11.669,0,5.883,5.883,0,0,0,5.68,5.761,5.881,5.881,0,0,0,11.669,11.509Zm0-8.59a2.9,2.9,0,0,1,2.941,2.843,2.943,2.943,0,0,1-5.882,0,2.893,2.893,0,0,1,2.941-2.843Z" data-name="Контур 736" transform="translate(-0.062)"/></g></svg>