<svg xmlns="http://www.w3.org/2000/svg" width="23" height="23" viewBox="0 0 23 23">
  <path id="Icon_Color" data-name="Icon Color" d="M18.687,23H4.312a4.313,4.313,0,0,1-4.3-4.06L0,18.687V4.312A4.313,4.313,0,0,1,4.058.008L4.312,0H7.188a1.438,1.438,0,0,1,.167,2.866l-.167.009H4.312a1.436,1.436,0,0,0-1.427,1.27l-.01.167V18.687a1.437,1.437,0,0,0,1.27,1.428l.167.01H18.687a1.437,1.437,0,0,0,1.428-1.27l.01-.168V15.812a1.437,1.437,0,0,1,2.864-.167l.01.167v2.875a4.314,4.314,0,0,1-4.06,4.306Zm-5.75-11.5a1.441,1.441,0,0,1-.881-.3l-.136-.12a1.438,1.438,0,0,1-.119-1.9l.119-.136,6.169-6.171H15.812a1.437,1.437,0,0,1,0-2.875h5.751l.116,0,.172.025.159.043.16.063.14.075.138.1.129.115.14.162.1.159.045.088.048.116.035.11.041.212.01.169V7.188a1.437,1.437,0,1,1-2.875,0V4.907l-6.171,6.171A1.429,1.429,0,0,1,12.937,11.5Z" fill="#747b88"/>
</svg>
