<svg xmlns="http://www.w3.org/2000/svg" width="16" height="16" viewBox="0 0 16 16"><path id="Icon_Color" fill="#0d84fb" d="M13,16H3A3,3,0,0,1,.005,13.176L0,13V3A3,3,0,0,1,2.823.005L3,0H5a1,1,0,0,1,.116,1.993L5,2H3a1,1,0,0,0-.993.884L2,3V13a1,1,0,0,0,.884.994L3,14H13a1,1,0,0,0,.994-.884L14,13V11a1,1,0,0,1,1.993-.116L16,11v2a3,3,0,0,1-2.824,3ZM9,8a1,1,0,0,1-.613-.21l-.095-.084A1,1,0,0,1,8.21,6.387l.083-.095L12.584,2H11a1,1,0,0,1,0-2h4l.081,0L15.2.02l.111.03.112.044.1.052.1.067.09.08.1.113.071.111.031.061.033.081.024.076.029.148L16,1V5a1,1,0,1,1-2,0V3.414L9.707,7.707A.994.994,0,0,1,9,8Z" data-name="Icon Color"/></svg>