<svg xmlns="http://www.w3.org/2000/svg" id="twitter" width="22" height="17.875" viewBox="0 0 22 17.875"><g id="Сгруппировать_118" data-name="Сгруппировать 118"><path id="Контур_1" fill="#747b88" d="M22,50.116a9.4,9.4,0,0,1-2.6.712,4.485,4.485,0,0,0,1.984-2.493,9.014,9.014,0,0,1-2.86,1.092,4.51,4.51,0,0,0-7.8,3.084,4.644,4.644,0,0,0,.1,1.028,12.766,12.766,0,0,1-9.3-4.718A4.511,4.511,0,0,0,2.918,54.85,4.454,4.454,0,0,1,.88,54.295v.049a4.531,4.531,0,0,0,3.613,4.432,4.5,4.5,0,0,1-1.182.148,3.988,3.988,0,0,1-.854-.077,4.553,4.553,0,0,0,4.214,3.142,9.062,9.062,0,0,1-5.592,1.924A8.448,8.448,0,0,1,0,63.851a12.7,12.7,0,0,0,6.919,2.024A12.748,12.748,0,0,0,19.756,53.041c0-.2-.007-.392-.017-.583A9,9,0,0,0,22,50.116Z" data-name="Контур 1" transform="translate(0 -48)"/></g></svg>