<svg xmlns="http://www.w3.org/2000/svg" width="21.715" height="19" viewBox="0 0 21.715 19"><path id="vimeo" fill="#747b88" d="M18.545,1.5C15.534,1.4,13.5,3.121,12.427,6.656A3.9,3.9,0,0,1,14.035,6.3c1.1,0,1.591.631,1.46,1.884A8.612,8.612,0,0,1,14.037,11.5q-1.369,2.178-2.049,2.18c-1.377,0-2.2-6.59-2.485-8.39Q8.917,1.535,6.383,1.78C4.832,1.927,2.126,4.719,0,6.612L1.021,7.944a6.691,6.691,0,0,1,1.7-1.035c1.693,0,2.513,5.761,3.827,10.045C7.433,19.318,8.49,20.5,9.765,20.5q3.073,0,7.5-5.821Q21.547,9.1,21.694,5.9l.012-.009c.121-2.864-.924-4.329-3.16-4.385Z" transform="translate(0 -1.5)"/></svg>