<svg xmlns="http://www.w3.org/2000/svg" width="16.999" height="17" viewBox="0 0 16.999 17">
  <path id="Icon_Color" data-name="Icon Color" d="M15.937,17a1.065,1.065,0,0,1-.651-.223l-.1-.089L12,13.5a1.02,1.02,0,0,1-.1-.115,7.358,7.358,0,0,1-4.462,1.489,7.437,7.437,0,1,1,5.95-2.974l.058.045L13.5,12l3.187,3.187A1.063,1.063,0,0,1,15.937,17ZM7.438,2.125A5.312,5.312,0,1,0,12.75,7.438,5.319,5.319,0,0,0,7.438,2.125Zm0,8.5A1.064,1.064,0,0,1,6.375,9.562V8.5H5.313a1.062,1.062,0,1,1,0-2.125H6.375V5.313a1.062,1.062,0,1,1,2.125,0V6.375H9.563a1.062,1.062,0,1,1,0,2.125H8.5V9.562A1.064,1.064,0,0,1,7.438,10.625Z" fill="#fff"/>
</svg>
