<svg xmlns="http://www.w3.org/2000/svg" width="26" height="26" viewBox="0 0 26 26">
  <path id="Icon_Color" data-name="Icon Color" d="M24.7,0a3.138,3.138,0,0,0-2.219.919L18.72,4.68a1.3,1.3,0,0,1-1.235.342L2.6,1.3,1.275,2.625a1.3,1.3,0,0,0,.338,2.082L13,10.4,7.8,15.6H2.1a1.3,1.3,0,0,0-1.163.719L0,18.2H0l5.2,2.6h0L7.8,26l1.881-.941A1.3,1.3,0,0,0,10.4,23.9V18.2L15.6,13l5.693,11.387a1.3,1.3,0,0,0,2.082.338L24.7,23.4,20.979,8.514A1.3,1.3,0,0,1,21.32,7.28l3.76-3.76A3.138,3.138,0,0,0,26,1.3,1.3,1.3,0,0,0,24.7,0Z" fill="#0d84fb"/>
</svg>
