<svg xmlns="http://www.w3.org/2000/svg" xmlns:xlink="http://www.w3.org/1999/xlink" width="30pt" height="30.000001pt" viewBox="0 0 30 30.000001" version="1.2">
<defs>
<clipPath id="clip1">
  <path d="M 0.484375 0.109375 L 29.40625 0.109375 L 29.40625 29 L 0.484375 29 Z M 0.484375 0.109375 "/>
</clipPath>
</defs>
<g id="surface1">
<g clip-path="url(#clip1)" clip-rule="nonzero">
<path style=" stroke:none;fill-rule:nonzero;fill:rgb(45.489502%,48.239136%,53.329468%);fill-opacity:1;" d="M 23.894531 0.179688 L 22.289062 0.167969 L 23.066406 4.425781 Z M 27.445312 1.714844 L 24.527344 4.886719 L 28.398438 3.015625 Z M 25.085938 6.953125 L 29.125 8.421875 L 29.378906 6.824219 Z M 11.636719 10.585938 L 17.972656 4.175781 C 18.03125 4.101562 18.089844 4.039062 18.148438 3.980469 C 18.566406 3.558594 19.097656 3.289062 19.640625 3.214844 C 19.753906 3.105469 19.816406 3.042969 19.820312 3.039062 C 20.53125 2.324219 20.636719 1.273438 20.0625 0.691406 C 19.484375 0.109375 18.441406 0.21875 17.730469 0.933594 C 17.675781 0.992188 17.625 1.050781 17.574219 1.109375 L 11.617188 7.136719 C 11.6875 7.589844 11.730469 8.085938 11.742188 8.636719 C 11.753906 9.347656 11.71875 10 11.636719 10.585938 Z M 2.296875 20.296875 C 1.695312 17.945312 2.375 15.339844 4.171875 13.128906 C 4.40625 12.84375 4.652344 12.5625 4.886719 12.285156 C 5.789062 11.242188 6.640625 10.257812 6.992188 9.035156 C 7.121094 8.589844 7.179688 8.121094 7.242188 7.621094 C 7.277344 7.332031 7.3125 7.03125 7.363281 6.734375 C 7.507812 5.921875 7.976562 4.035156 9.28125 4.035156 C 9.582031 4.035156 9.882812 4.144531 10.175781 4.355469 C 10.21875 4.382812 10.261719 4.417969 10.300781 4.449219 C 10.210938 3.316406 9.917969 2.015625 9.015625 1.371094 C 7.816406 0.515625 7.261719 2.496094 7.105469 3.375 C 6.96875 4.164062 6.941406 4.972656 6.722656 5.738281 C 6.230469 7.441406 4.882812 8.699219 3.792969 10.042969 C 2.234375 11.953125 1.410156 14.425781 2.046875 16.773438 C 2.066406 16.847656 2.09375 16.925781 2.121094 17.003906 L 0.953125 18.183594 C 0.390625 18.746094 0.390625 19.660156 0.953125 20.222656 L 1.660156 20.9375 Z M 25.222656 15.730469 L 25.226562 15.734375 L 19.15625 21.851562 C 19.140625 21.871094 19.128906 21.886719 19.113281 21.90625 L 16.722656 24.308594 C 15.035156 26.011719 12.785156 26.761719 10.683594 26.535156 L 8.652344 28.582031 C 8.097656 29.140625 7.199219 29.140625 6.644531 28.582031 L 1.652344 23.550781 C 1.09375 22.992188 1.09375 22.085938 1.652344 21.527344 L 2.828125 20.339844 C 2.800781 20.261719 2.777344 20.1875 2.757812 20.117188 C 2.15625 17.800781 3.003906 15.351562 4.5625 13.445312 C 5.660156 12.105469 7.003906 10.84375 7.511719 9.160156 C 7.738281 8.398438 7.773438 7.597656 7.917969 6.820312 C 8.082031 5.945312 8.65625 3.984375 9.832031 4.816406 C 10.910156 5.582031 11.078125 7.335938 11.085938 8.570312 C 11.097656 9.824219 10.964844 11.722656 9.96875 12.863281 L 18.289062 4.449219 C 18.335938 4.390625 18.386719 4.332031 18.441406 4.277344 C 19.152344 3.5625 20.183594 3.441406 20.746094 4.007812 C 21.308594 4.574219 21.191406 5.613281 20.480469 6.328125 C 20.445312 6.363281 20.410156 6.394531 20.375 6.425781 C 20.378906 6.425781 14.042969 12.835938 14.042969 12.835938 C 13.949219 12.933594 13.945312 13.082031 14.03125 13.175781 C 14.121094 13.261719 14.269531 13.257812 14.367188 13.160156 L 21.699219 5.746094 C 21.75 5.679688 21.804688 5.617188 21.863281 5.554688 C 22.574219 4.839844 23.605469 4.71875 24.167969 5.289062 C 24.734375 5.855469 24.613281 6.894531 23.902344 7.609375 C 23.855469 7.65625 23.804688 7.703125 23.753906 7.746094 L 23.757812 7.75 L 16.394531 15.203125 C 16.296875 15.296875 16.292969 15.449219 16.378906 15.539062 C 16.46875 15.628906 16.621094 15.625 16.714844 15.527344 L 22.785156 9.378906 C 22.839844 9.3125 22.898438 9.242188 22.964844 9.175781 C 23.671875 8.460938 24.707031 8.339844 25.269531 8.910156 C 25.820312 9.464844 25.714844 10.46875 25.046875 11.183594 C 25.046875 11.183594 25.003906 11.230469 25.003906 11.230469 C 25 11.230469 18.742188 17.566406 18.742188 17.566406 C 18.644531 17.664062 18.640625 17.816406 18.730469 17.90625 C 18.816406 17.996094 18.96875 17.988281 19.0625 17.890625 L 22.921875 13.976562 C 22.976562 13.902344 23.039062 13.828125 23.109375 13.757812 C 23.820312 13.042969 24.851562 12.921875 25.414062 13.488281 C 25.957031 14.035156 25.863281 15.019531 25.222656 15.730469 "/>
</g>
</g>
</svg>
