<svg xmlns="http://www.w3.org/2000/svg" width="17" height="17" viewBox="0 0 17 17"><path id="Icon_Color" fill="#8e8e8e" d="M13.812,17H3.187A3.191,3.191,0,0,1,0,13.812v-8.5A3.191,3.191,0,0,1,3.187,2.125V1.062a1.063,1.063,0,0,1,2.126,0V2.125h6.374V1.062a1.062,1.062,0,0,1,2.125,0V2.125A3.192,3.192,0,0,1,17,5.313v8.5A3.192,3.192,0,0,1,13.812,17ZM2.125,8.5v5.312a1.064,1.064,0,0,0,1.062,1.063H13.812a1.065,1.065,0,0,0,1.063-1.063V8.5ZM3.187,4.25A1.064,1.064,0,0,0,2.125,5.313V6.375H14.875V5.313A1.065,1.065,0,0,0,13.812,4.25Z" data-name="Icon Color"/></svg>