<svg xmlns="http://www.w3.org/2000/svg" width="26" height="26" viewBox="0 0 26 26">
  <path id="Icon_Color" data-name="Icon Color" d="M21.124,26H4.874A4.881,4.881,0,0,1,0,21.124v-13A4.881,4.881,0,0,1,4.874,3.25V1.625a1.626,1.626,0,0,1,3.251,0V3.25h9.749V1.625a1.625,1.625,0,1,1,3.25,0V3.25A4.882,4.882,0,0,1,26,8.126v13A4.881,4.881,0,0,1,21.124,26ZM3.25,13v8.124a1.627,1.627,0,0,0,1.625,1.626h16.25a1.628,1.628,0,0,0,1.626-1.626V13ZM4.874,6.5A1.627,1.627,0,0,0,3.25,8.126V9.75h19.5V8.126A1.628,1.628,0,0,0,21.124,6.5Z" fill="#0d84fb"/>
</svg>
