<svg id="Сгруппировать_4778" data-name="Сгруппировать 4778" xmlns="http://www.w3.org/2000/svg" xmlns:xlink="http://www.w3.org/1999/xlink" width="20.472" height="20.47" viewBox="0 0 20.472 20.47">
  <defs>
    <clipPath id="clip-path">
      <rect id="Прямоугольник_244" data-name="Прямоугольник 244" width="20.472" height="20.47" fill="#747b88"/>
    </clipPath>
  </defs>
  <g id="Сгруппировать_149" data-name="Сгруппировать 149" clip-path="url(#clip-path)">
    <path id="Контур_2" data-name="Контур 2" d="M4.717,0H15.751A10.97,10.97,0,0,1,16.9.249a5.1,5.1,0,0,1,3.567,4.9q.014,5.086,0,10.173A4.935,4.935,0,0,1,19.52,18.3a5.059,5.059,0,0,1-4.3,2.17q-4.946,0-9.893,0A5.855,5.855,0,0,1,4.3,20.389,4.972,4.972,0,0,1,.363,17.2,10.315,10.315,0,0,1,0,15.752V4.718c.025-.143.049-.286.076-.429A5,5,0,0,1,3.256.371,10.205,10.205,0,0,1,4.717,0m5.517,14.5a4.265,4.265,0,1,0-4.265-4.275A4.279,4.279,0,0,0,10.234,14.5m5.55-8.535A1.28,1.28,0,0,0,17.057,4.7a1.3,1.3,0,0,0-1.285-1.283,1.276,1.276,0,0,0,.012,2.553" transform="translate(0 -0.001)" fill="#747b88"/>
  </g>
</svg>
