<svg xmlns="http://www.w3.org/2000/svg" xmlns:xlink="http://www.w3.org/1999/xlink" id="Сгруппировать_4517" width="29.377" height="29.374" data-name="Сгруппировать 4517" viewBox="0 0 29.377 29.374"><defs><clipPath id="clip-path"><rect id="Прямоугольник_244" width="29.377" height="29.374" fill="#fff" data-name="Прямоугольник 244"/></clipPath></defs><g id="Сгруппировать_149" clip-path="url(#clip-path)" data-name="Сгруппировать 149"><path id="Контур_2" fill="#fff" d="M6.769,0H22.6A15.742,15.742,0,0,1,24.25.357a7.323,7.323,0,0,1,5.119,7.035q.02,7.3,0,14.6a7.082,7.082,0,0,1-1.36,4.269,7.26,7.26,0,0,1-6.167,3.114q-7.1.007-14.2,0a8.4,8.4,0,0,1-1.483-.111A7.135,7.135,0,0,1,.521,24.675,14.8,14.8,0,0,1,0,22.6V6.77c.036-.205.071-.411.109-.615A7.178,7.178,0,0,1,4.672.532,14.645,14.645,0,0,1,6.769,0m7.917,20.807a6.121,6.121,0,1,0-6.121-6.135,6.14,6.14,0,0,0,6.121,6.135M22.65,8.56a1.837,1.837,0,0,0,1.827-1.821A1.859,1.859,0,0,0,22.633,4.9,1.831,1.831,0,0,0,22.65,8.56" data-name="Контур 2" transform="translate(0 -0.001)"/></g></svg>