<svg xmlns="http://www.w3.org/2000/svg" width="19.053" height="15.159" viewBox="0 0 19.053 15.159">
  <path id="Icon_Color" data-name="Icon Color" d="M15.072,15.159a1.2,1.2,0,0,1-.839-.338L12.8,13.435a9.286,9.286,0,0,1-3.261.571c-3.78,0-6.815-2.025-9.021-6.017l-.2-.377-.352-.688.31-.529A15.283,15.283,0,0,1,2.429,3.235l-.978-.95a1.131,1.131,0,0,1,0-1.632,1.212,1.212,0,0,1,1.679,0l4.733,4.6A2.408,2.408,0,0,1,9.5,4.615a2.344,2.344,0,0,1,2.374,2.308,2.614,2.614,0,0,1-.611,1.75l4.648,4.517a1.131,1.131,0,0,1,.1,1.523l-.1.109A1.2,1.2,0,0,1,15.072,15.159ZM4.111,4.868A12.121,12.121,0,0,0,2.894,6.55l-.219.373.186.319c1.737,2.891,3.908,4.3,6.638,4.3a7.2,7.2,0,0,0,1.346-.124ZM16.669,10.6h0l-1.7-1.712a12.707,12.707,0,0,0,1.359-1.966c-1.766-3.105-4-4.615-6.824-4.615a7.294,7.294,0,0,0-1.206.1L6.36.526A9.328,9.328,0,0,1,9.5,0c3.78,0,6.815,2.025,9.02,6.017l.2.376.3.608-.276.529A15.407,15.407,0,0,1,16.67,10.6Z" transform="translate(0.033)" fill="#8e8e8e"/>
</svg>
