<svg xmlns="http://www.w3.org/2000/svg" width="19" height="14" viewBox="0 0 19 14">
  <path id="Icon_Color" data-name="Icon Color" d="M9.5,14C5.719,14,2.684,11.953.48,7.916l-.2-.381L0,7l.277-.536C2.5,2.175,5.6,0,9.5,0c3.78,0,6.815,2.047,9.02,6.084l.2.381L19,7l-.277.534C16.5,11.825,13.4,14,9.5,14Zm0-11.667c-2.729,0-4.9,1.421-6.638,4.344L2.676,7l.186.322C4.6,10.246,6.771,11.667,9.5,11.667c2.826,0,5.058-1.526,6.824-4.666C14.559,3.86,12.327,2.333,9.5,2.333Zm0,7A2.334,2.334,0,1,1,11.875,7,2.357,2.357,0,0,1,9.5,9.333Z" fill="#8e8e8e"/>
</svg>
