<svg xmlns="http://www.w3.org/2000/svg" width="16" height="16" viewBox="0 0 16 16"><path id="Icon_Color" fill="#fff" d="M12.353,16a.926.926,0,0,1-.445-.115l-3.462-1.9a.922.922,0,0,0-.891,0l-3.462,1.9A.929.929,0,0,1,3.647,16a.95.95,0,0,1-.848-.534,1.036,1.036,0,0,1-.1-.635L3.365,10.8a1.028,1.028,0,0,0-.274-.885L.289,7.063A1.034,1.034,0,0,1,.272,5.649a.952.952,0,0,1,.547-.292L4.691,4.77a.96.96,0,0,0,.72-.546L7.142.558A.947.947,0,0,1,8,0a.912.912,0,0,1,.423.1.978.978,0,0,1,.435.455l1.732,3.666a.96.96,0,0,0,.72.546l3.871.588a1,1,0,0,1,.81,1.134,1.024,1.024,0,0,1-.279.572l-2.8,2.854a1.029,1.029,0,0,0-.275.885l.662,4.029a1,1,0,0,1-.781,1.155A.921.921,0,0,1,12.353,16ZM8,11.868a2.933,2.933,0,0,1,1.409.362l1.576.866-.323-1.97a3.032,3.032,0,0,1,.821-2.61l1.45-1.476L11.01,6.747A2.956,2.956,0,0,1,8.78,5.078L8,3.424,7.219,5.078A2.953,2.953,0,0,1,4.99,6.747L3.068,7.04,4.517,8.516a3.035,3.035,0,0,1,.822,2.61L5.016,13.1l1.576-.866A2.929,2.929,0,0,1,8,11.868Z" data-name="Icon Color" transform="translate(-0.001 0)"/></svg>