<svg xmlns="http://www.w3.org/2000/svg" width="20.434" height="20.47" viewBox="0 0 20.434 20.47">
  <path id="pinterest" d="M10.658,0A10.222,10.222,0,0,0,6.571,19.589a9.117,9.117,0,0,1,.176-2.361c.211-.846,1.3-5.567,1.3-5.567a4.131,4.131,0,0,1-.317-1.621c0-1.515.881-2.642,1.973-2.642a1.381,1.381,0,0,1,1.374,1.55,21.822,21.822,0,0,1-.916,3.629,1.582,1.582,0,0,0,1.621,1.973c1.938,0,3.241-2.5,3.241-5.426,0-2.255-1.515-3.911-4.263-3.911a4.853,4.853,0,0,0-5.038,4.9A2.932,2.932,0,0,0,6.4,12.12a.5.5,0,0,1,.141.564c-.035.176-.176.634-.211.81a.362.362,0,0,1-.528.247c-1.445-.6-2.079-2.149-2.079-3.911,0-2.889,2.431-6.377,7.293-6.377,3.911,0,6.483,2.819,6.483,5.849,0,4.016-2.22,7.011-5.5,7.011a2.966,2.966,0,0,1-2.5-1.268s-.6,2.361-.7,2.819a8.316,8.316,0,0,1-1.022,2.184,9.884,9.884,0,0,0,2.889.423,10.235,10.235,0,0,0,0-20.47" transform="translate(-0.441)" fill="#747b88"/>
</svg>
