<svg xmlns="http://www.w3.org/2000/svg" width="25.501" height="25.501" viewBox="0 0 25.501 25.501">
  <g id="Сгруппировать_5472" data-name="Сгруппировать 5472" transform="translate(-13098 3440.501)">
    <rect id="Прямоугольник_3567" data-name="Прямоугольник 3567" width="25" height="25" rx="5" transform="translate(13098 -3440)" fill="#fff"/>
    <path id="Icon_awesome-rss-square" data-name="Icon awesome-rss-square" d="M22.769,2.25H2.732A2.732,2.732,0,0,0,0,4.982V25.019a2.732,2.732,0,0,0,2.732,2.732H22.769A2.732,2.732,0,0,0,25.5,25.019V4.982A2.732,2.732,0,0,0,22.769,2.25ZM6.375,24.108a2.732,2.732,0,1,1,2.732-2.732A2.732,2.732,0,0,1,6.375,24.108Zm8.967,0H13.388a.651.651,0,0,1-.651-.605,9.11,9.11,0,0,0-8.488-8.488.651.651,0,0,1-.605-.651V12.409a.65.65,0,0,1,.683-.65A12.363,12.363,0,0,1,15.993,23.425a.65.65,0,0,1-.65.683Zm5.864,0H19.252a.652.652,0,0,1-.65-.628A14.965,14.965,0,0,0,4.271,9.149.652.652,0,0,1,3.643,8.5V6.544a.65.65,0,0,1,.671-.651A18.228,18.228,0,0,1,21.858,23.437a.65.65,0,0,1-.651.671Z" transform="translate(13098 -3442.751)" fill="#ffb100"/>
  </g>
</svg>
