<svg xmlns="http://www.w3.org/2000/svg" width="25.403" height="14.289" viewBox="0 0 25.403 14.289"><g id="soundcloud" transform="translate(0 -5)"><path id="Контур_729" fill="#747b88" d="M20.732,11.351a4.037,4.037,0,0,0-.828.087A7.157,7.157,0,0,0,12.794,5,.794.794,0,0,0,12,5.794V18.5a.794.794,0,0,0,.794.794h7.939a3.969,3.969,0,0,0,0-7.939Z" data-name="Контур 729" transform="translate(0.702)"/><path id="Контур_730" fill="#747b88" d="M9,7.294V18.408a.794.794,0,1,0,1.588,0V7.294A.794.794,0,0,0,9,7.294Z" data-name="Контур 730" transform="translate(0.526 0.088)"/><path id="Контур_731" fill="#747b88" d="M6,10.294v7.939a.794.794,0,0,0,1.588,0V10.294a.794.794,0,0,0-1.588,0Z" data-name="Контур 731" transform="translate(0.351 0.263)"/><path id="Контур_732" fill="#747b88" d="M3,18.232a.794.794,0,0,0,1.588,0V10.294a.794.794,0,0,0-1.588,0Z" data-name="Контур 732" transform="translate(0.175 0.263)"/><path id="Контур_733" fill="#747b88" d="M.794,18.851a.794.794,0,0,0,.794-.794V13.294a.794.794,0,0,0-1.588,0v4.763A.794.794,0,0,0,.794,18.851Z" data-name="Контур 733" transform="translate(0 0.439)"/></g></svg>