<svg xmlns="http://www.w3.org/2000/svg" width="25.501" height="20.719" viewBox="0 0 25.501 20.719">
  <g id="twitter" transform="translate(0 -48)">
    <g id="Сгруппировать_118" data-name="Сгруппировать 118" transform="translate(0 48)">
      <path id="Контур_1" data-name="Контур 1" d="M25.5,50.453a10.9,10.9,0,0,1-3.012.826,5.2,5.2,0,0,0,2.3-2.89,10.448,10.448,0,0,1-3.315,1.265,5.228,5.228,0,0,0-9.043,3.575,5.383,5.383,0,0,0,.121,1.192A14.8,14.8,0,0,1,1.775,48.953,5.229,5.229,0,0,0,3.382,55.94,5.163,5.163,0,0,1,1.02,55.3v.057a5.252,5.252,0,0,0,4.189,5.137,5.218,5.218,0,0,1-1.371.172,4.622,4.622,0,0,1-.99-.089,5.278,5.278,0,0,0,4.885,3.642,10.5,10.5,0,0,1-6.482,2.23A9.793,9.793,0,0,1,0,66.373,14.718,14.718,0,0,0,8.02,68.72,14.777,14.777,0,0,0,22.9,53.843c0-.231-.008-.454-.019-.676A10.429,10.429,0,0,0,25.5,50.453Z" transform="translate(0 -48)" fill="#0d84fb"/>
    </g>
  </g>
</svg>
