<svg xmlns="http://www.w3.org/2000/svg" width="20.4" height="15.45" viewBox="0 0 20.4 15.45">
  <path id="Icon_Color" data-name="Icon Color" d="M21,2.5a.752.752,0,0,0-.5-.7l-2-.8a7.169,7.169,0,0,0-5,0L10.8,2.1l-2.7-1a7.169,7.169,0,0,0-5,0l-2,.8a.634.634,0,0,0-.5.6V14.7a.367.367,0,0,0,.1.3c.1.3.4.4.7.5a.367.367,0,0,0,.3-.1L2.8,15a8.574,8.574,0,0,1,2.7-.5,8.082,8.082,0,0,1,2.7.5l2.5,1,2.5-1a7.465,7.465,0,0,1,5.5,0l1.2.5c.1,0,.2.1.3.1a.764.764,0,0,0,.5-.2,1.141,1.141,0,0,0,.3-.6ZM9.8,4.3v9L9,13.1a10.388,10.388,0,0,0-3.5-.7h0a10.075,10.075,0,0,0-2.5.3l-.4.1V3.5L3.8,3A4.507,4.507,0,0,1,7.4,3L9.9,4ZM19,12.9l-.4-.1a9.474,9.474,0,0,0-6,.3l-.8.3V4l2.5-1a5.663,5.663,0,0,1,1.8-.3h.4a3.529,3.529,0,0,1,1.4.3l1.1.5Z" transform="translate(-0.6 -0.55)" fill="#8e8e8e"/>
</svg>
