<svg xmlns="http://www.w3.org/2000/svg" width="21.895" height="15.33" viewBox="0 0 21.895 15.33"><path id="youtube_1_" fill="#747b88" d="M21.444-3.683a2.743,2.743,0,0,0-1.93-1.93c-1.713-.469-8.567-.469-8.567-.469s-6.853,0-8.567.451A2.8,2.8,0,0,0,.451-3.683,28.9,28.9,0,0,0,0,1.583,28.8,28.8,0,0,0,.451,6.849a2.743,2.743,0,0,0,1.93,1.93c1.731.469,8.567.469,8.567.469s6.853,0,8.567-.451a2.743,2.743,0,0,0,1.93-1.93A28.912,28.912,0,0,0,21.9,1.6,27.437,27.437,0,0,0,21.444-3.683ZM8.765,4.865V-1.7l5.7,3.282Zm0,0" data-name="youtube (1)" transform="translate(0 6.082)"/></svg>